<svg width="149" height="134" viewBox="0 0 149 134" fill="none" xmlns="http://www.w3.org/2000/svg">
<path d="M24.4995 99.5797C23.0982 100.621 21.787 101.619 20.4487 102.58C19.4009 103.331 18.2707 103.8 17.0029 103.111C15.8203 102.469 15.6944 101.313 15.6891 100.144C15.6732 96.6169 15.6681 93.09 15.6885 89.5633C15.6928 88.8188 15.4937 88.2749 14.8676 87.8073C10.6598 84.6645 7.8287 80.537 6.32958 75.5155C6.01483 74.4612 5.57154 73.95 4.39377 73.8246C1.87436 73.5564 0.0904741 71.4569 0.0470164 68.7914C-0.0127067 65.1281 -0.0202441 61.4621 0.0518767 57.7993C0.108528 54.9222 1.9934 52.9954 4.85469 52.7903C5.82749 52.7206 6.31451 52.442 6.6765 51.407C10.1653 41.4318 17.0817 35.3847 27.5461 33.6042C30.9839 33.0192 34.481 33.3172 37.9528 33.2767C39.8147 33.255 39.8169 33.2639 39.8195 31.3471C39.8218 29.6982 39.7655 28.0469 39.8375 26.4012C39.8808 25.4144 39.5132 24.8509 38.7072 24.2845C35.4096 21.9672 34.6906 17.5093 37.043 14.3438C38.7663 12.0248 41.1721 11.3461 43.8613 11.9165C46.4408 12.4637 48.1294 14.164 48.7567 16.7573C49.4676 19.6967 48.6105 22.1875 46.3045 24.1238C45.6804 24.6479 45.3963 25.1752 45.4171 25.987C45.4639 27.8179 45.4833 29.6528 45.4133 31.4822C45.3683 32.6577 45.7455 33.0737 46.9747 33.0761C50.1253 33.0822 53.2728 32.9418 56.4308 33.2309C63.2881 33.8586 68.923 36.8337 73.5202 41.8489C78.3737 47.1436 80.6926 53.4463 80.6277 60.6196C80.5906 64.7282 81.0068 68.8774 79.9347 72.9148C77.0109 83.9253 69.7055 90.3224 58.7827 92.8371C56.818 93.2894 54.8176 93.4089 52.7969 93.3977C46.6655 93.3638 40.5336 93.4072 34.4022 93.369C33.3364 93.3624 32.4571 93.6228 31.6162 94.2636C29.2873 96.0385 26.9262 97.7711 24.4995 99.5797ZM20.5089 73.8195C23.315 76.0449 26.4386 77.3631 30.0853 77.3472C38.6373 77.31 47.19 77.2548 55.7415 77.3239C63.0693 77.3831 71.4772 69.7248 70.0645 60.2405C68.9694 52.889 62.6471 47.2101 55.2397 47.1936C46.8243 47.1748 38.4088 47.1902 29.9934 47.1951C29.4455 47.1954 28.883 47.1597 28.3519 47.265C22.1262 48.4995 17.7592 52.0597 15.9165 58.1393C14.0981 64.1384 15.7181 69.4119 20.5089 73.8195Z" fill="black"/>
<path d="M86.1796 124.809C85.7891 127.306 85.3786 129.69 85.067 132.086C84.9144 133.26 84.3392 133.71 83.1943 133.817C78.1543 134.287 73.1596 133.765 68.1639 133.225C67.1883 133.119 66.5653 132.592 66.4759 131.558C66.2835 129.331 66.0677 127.106 65.9126 124.877C65.8339 123.746 65.4432 123.069 64.2274 122.757C60.2412 121.736 56.3376 120.436 52.5783 118.749C51.6671 118.34 51.0583 118.49 50.4179 119.206C49.106 120.673 47.7327 122.084 46.3999 123.532C44.744 125.331 43.8542 125.467 41.9578 123.997C38.5229 121.335 35.1067 118.648 31.723 115.921C30.2172 114.708 30.1445 113.921 31.1846 112.253C32.2986 110.467 33.4025 108.673 34.5857 106.933C35.0758 106.212 34.9887 105.749 34.3905 105.18C33.242 104.088 32.1476 102.939 30.9176 101.7C32.9731 100.182 34.5734 98.2854 37.4598 98.6387C39.5333 98.8924 41.6657 98.7481 43.7665 98.6587C44.7871 98.6153 45.4731 98.9688 46.1601 99.6686C52.4794 106.107 60.0133 110.424 68.8586 112.245C80.9717 114.739 92.1597 112.343 102.426 105.496C102.54 105.42 102.648 105.332 102.744 105.235C102.804 105.174 102.838 105.087 102.933 104.928C102.268 104.513 101.533 104.657 100.837 104.636C97.5035 104.533 94.1592 104.87 90.8344 104.392C88.573 104.066 87.4355 102.826 87.3335 100.543C87.3029 99.8574 87.3255 99.1694 87.3256 98.4824C87.3287 77.5072 87.3321 56.532 87.3355 35.5568C87.3355 35.053 87.3356 34.5492 87.3372 34.0455C87.3484 30.5293 88.5808 29.2231 92.1128 29.1754C96.0926 29.1218 100.074 29.1611 104.054 29.1611C111.466 29.1612 118.878 29.1972 126.29 29.1445C129.029 29.1251 131.21 29.8642 133.192 31.9822C137.756 36.8587 142.569 41.502 147.325 46.1961C148.482 47.3382 149.01 48.6056 149 50.2251C148.895 66.7989 148.826 83.3729 148.734 99.9468C148.716 103.372 147.726 104.254 144.312 104.403C137.177 104.714 130.041 104.65 122.905 104.602C121.139 104.59 120.395 105.907 119.375 106.883C118.968 107.273 119.396 107.742 119.612 108.129C120.773 110.206 121.961 112.268 123.112 114.351C124.076 116.098 123.934 116.937 122.32 118.098C118.717 120.688 115.091 123.246 111.438 125.763C109.825 126.874 108.805 126.682 107.49 125.225C106.079 123.662 104.665 122.102 103.27 120.526C102.689 119.869 102.092 119.677 101.213 120.003C96.6697 121.688 92.0568 123.141 87.2604 123.935C86.7965 124.012 86.3895 124.219 86.1796 124.809ZM92.3998 70.8864C92.3097 79.9518 92.5526 89.0205 92.1668 98.0824C92.1094 99.4304 92.5988 99.896 93.9035 99.8006C95.7717 99.6639 97.6466 99.5525 99.5189 99.5487C113.749 99.5197 127.979 99.508 142.209 99.5316C143.4 99.5336 143.916 99.2916 143.92 97.9516C143.955 83.3434 143.736 68.7332 144.173 54.1281C144.213 52.7997 143.785 52.3857 142.462 52.411C138.528 52.486 134.592 52.4422 130.657 52.4369C127.968 52.4332 126.916 51.3894 126.91 48.709C126.901 44.4955 126.856 40.2809 126.934 36.0688C126.959 34.703 126.59 34.2606 125.172 34.2687C114.968 34.3269 104.765 34.2991 94.5613 34.2995C92.44 34.2996 92.4333 34.3013 92.431 36.3991C92.4184 47.8033 92.4095 59.2074 92.3998 70.8864ZM135.341 47.2817C137.097 47.2817 138.853 47.2817 140.959 47.2817C137.75 44.1452 134.833 41.2938 131.832 38.3602C131.832 40.3543 131.77 42.3066 131.858 44.252C131.902 45.2193 131.207 46.4489 132.116 47.101C132.892 47.6579 134.072 47.2187 135.341 47.2817Z" fill="black"/>
<path d="M96.5506 8.16023C97.2238 7.06024 97.8185 6.02819 98.4712 5.03427C99.2811 3.801 100.325 3.45291 101.672 4.07665C105.531 5.86464 109.371 7.69808 113.082 9.7821C114.779 10.7352 115.031 11.6228 114.31 13.4405C113.568 15.312 112.873 17.2045 112.058 19.0436C111.617 20.0385 111.703 20.6939 112.608 21.3834C113.86 22.3386 114.998 23.4441 116.19 24.4894C115.675 25.1465 115.132 24.9328 114.67 24.9343C109.591 24.9507 104.512 24.9295 99.4337 24.9563C98.4471 24.9615 97.5536 24.7745 96.6609 24.3533C90.4888 21.4413 83.9665 19.9614 77.1596 20.0388C69.2931 20.1283 61.9136 22.1807 55.0843 26.1388C54.6828 26.3714 54.3336 26.8414 53.7387 26.6114C53.5852 26.0224 54.0316 25.6581 54.2484 25.2458C56.056 21.8089 56.5411 18.2275 55.3669 14.5061C55.0381 13.4639 55.2761 12.9881 56.278 12.6906C58.6422 11.9886 60.9809 11.1988 63.3532 10.5268C64.2654 10.2684 64.7432 9.87176 64.8392 8.86891C65.0433 6.73744 65.3594 4.61633 65.6484 2.49353C65.8076 1.32374 66.3398 0.656563 67.6726 0.534686C71.7728 0.159731 75.8743 -0.05024 79.9903 0.0103209C81.7211 0.0357846 82.0191 0.279433 82.3203 2.00229C82.6892 4.1118 83.0542 6.22211 83.3978 8.33583C83.5176 9.07256 83.7428 9.553 84.6181 9.70976C87.4919 10.2244 90.3491 10.842 93.1397 11.7135C93.9329 11.9612 94.3729 11.5924 94.7433 11.0344C95.3505 10.1195 95.9153 9.17634 96.5506 8.16023Z" fill="black"/>
<path d="M26.7879 66.6371C24.7816 65.0819 24.0258 63.169 24.645 60.7717C25.1923 58.6529 26.5682 57.3214 28.6865 56.9568C31.3533 56.4978 33.5855 57.6035 34.6109 59.6763C35.628 61.7323 35.1863 64.4901 33.591 66.0451C31.7956 67.795 29.3929 68.027 26.7879 66.6371Z" fill="black"/>
<path d="M52.9727 66.8277C50.6872 65.3571 49.803 63.1796 50.4479 60.7792C51.0429 58.5644 52.8858 57.0122 55.0354 56.9154C57.9243 56.7854 59.8692 57.8711 60.6283 60.3197C61.2675 62.3815 61.0678 64.4025 59.3984 66.0247C57.7052 67.67 55.5126 67.9572 52.9727 66.8277Z" fill="black"/>
<path d="M139.138 69.3834C139.138 70.0668 139.18 70.6198 139.129 71.1641C139.011 72.428 139.207 73.4043 140.535 74.0729C141.493 74.5551 141.88 75.6377 141.879 76.7704C141.873 81.1626 141.9 85.555 141.864 89.9469C141.844 92.36 139.786 94.4121 137.221 94.4479C132.331 94.516 127.439 94.502 122.549 94.443C120.394 94.417 118.409 92.352 118.378 90.1009C118.318 85.7096 118.337 81.3166 118.381 76.9248C118.393 75.6348 118.92 74.495 120.069 73.8007C120.719 73.408 120.857 72.8827 120.872 72.1981C120.908 70.5551 120.817 68.9146 121.056 67.2691C121.658 63.1255 125.158 59.9837 129.346 59.929C134.507 59.8616 137.934 62.254 139.006 66.6544C139.216 67.5166 139.094 68.3844 139.138 69.3834ZM134.543 67.808C133.691 65.3001 132.356 64.418 129.564 64.5189C127.497 64.5936 126.204 65.8145 125.598 68.2072C125.243 69.611 125.47 71.0295 125.422 72.4407C125.395 73.2521 125.917 73.4069 126.598 73.4026C128.884 73.3883 131.17 73.3681 133.455 73.4069C134.379 73.4225 134.672 72.9833 134.652 72.1573C134.619 70.7863 134.596 69.4151 134.543 67.808ZM129.206 89.4796C131.616 89.4467 131.659 89.4439 131.516 87.2412C131.45 86.2227 131.623 85.4314 132.394 84.6791C132.927 84.1599 133.237 83.3869 133.076 82.5396C132.821 81.1964 131.822 80.0715 130.564 79.9766C129.266 79.8787 128.295 80.4965 127.685 81.674C127.013 82.9706 127.334 84.1096 128.339 85.0131C128.954 85.5649 129.148 86.0483 129.04 86.8877C128.934 87.7054 128.625 88.5797 129.206 89.4796Z" fill="black"/>
<path d="M111.05 94.6975C109.195 94.5394 108.781 94.1717 108.793 92.5302C108.844 85.2044 108.935 77.879 108.992 70.5532C109 69.4555 109.479 69.011 110.574 68.9809C113.823 68.8913 113.843 68.8954 113.843 72.1824C113.841 78.7313 113.849 85.2802 113.858 91.8291C113.862 94.3216 113.697 94.5058 111.05 94.6975Z" fill="black"/>
<path d="M106.091 58.4745C103.895 58.4753 101.835 58.4882 99.7763 58.4725C98.2519 58.4609 97.5098 57.6986 97.5014 56.1911C97.4926 54.6166 98.1593 53.8966 99.722 53.893C106.769 53.877 113.816 53.8718 120.862 53.8784C122.514 53.88 122.93 54.3444 122.933 56.0427C122.937 57.8991 122.464 58.4607 120.779 58.4663C115.929 58.4824 111.079 58.4734 106.091 58.4745Z" fill="black"/>
<path d="M108.562 43.4357C112.222 43.4337 115.745 43.4227 119.267 43.4334C120.883 43.4383 121.27 43.8818 121.283 45.6405C121.297 47.4739 120.858 48.0225 119.269 48.0254C112.91 48.037 106.551 48.0371 100.193 48.0236C98.7769 48.0206 98.1759 47.3718 98.1043 45.8912C98.0217 44.1838 98.513 43.4608 100.062 43.4253C102.848 43.3614 105.637 43.4251 108.562 43.4357Z" fill="black"/>
<path d="M105.958 76.7818C106.697 77.1662 106.737 77.747 106.736 78.3647C106.728 83.0326 106.741 87.7005 106.721 92.3683C106.715 93.8395 106.319 94.1845 104.807 94.2085C104.35 94.2158 103.892 94.1911 103.436 94.2133C102.278 94.2698 101.682 93.623 101.677 92.5703C101.654 87.7202 101.685 82.8697 101.72 78.0195C101.727 77.065 102.27 76.6366 103.235 76.6906C104.101 76.739 104.97 76.726 105.958 76.7818Z" fill="black"/>
<path d="M100.096 86.9733C100.084 88.8441 100.112 90.5802 100.051 92.3134C99.9961 93.9039 99.6389 94.2057 98.0632 94.2196C97.5616 94.224 97.0595 94.221 96.5581 94.2059C95.5728 94.1762 95.0256 93.6773 95.0221 92.6748C95.0124 89.8898 95.0274 87.1047 95.0144 84.3198C95.0098 83.3489 95.5242 82.9365 96.4229 82.8175C99.4284 82.4193 100.082 82.9812 100.096 86.0156C100.098 86.2896 100.097 86.5635 100.096 86.9733Z" fill="black"/>
</svg>
