<svg width="36" height="32" viewBox="0 0 36 32" fill="none" xmlns="http://www.w3.org/2000/svg">
<path d="M5.91933 23.7802C5.58076 24.0289 5.26398 24.2673 4.94062 24.4966C4.68747 24.6761 4.41439 24.788 4.10809 24.6236C3.82236 24.4702 3.79194 24.1941 3.79066 23.9149C3.78682 23.0727 3.78558 22.2304 3.7905 21.3883C3.79154 21.2105 3.74344 21.0806 3.59217 20.9689C2.57552 20.2184 1.8915 19.2327 1.5293 18.0336C1.45325 17.7818 1.34614 17.6597 1.06158 17.6298C0.452866 17.5657 0.0218595 17.0643 0.0113597 16.4278C-0.00307007 15.553 -0.00489119 14.6775 0.012534 13.8028C0.0262216 13.1158 0.481626 12.6556 1.17295 12.6066C1.40798 12.59 1.52565 12.5235 1.61311 12.2763C2.45605 9.89417 4.12713 8.45007 6.65542 8.02487C7.48605 7.88518 8.33099 7.95634 9.16981 7.94667C9.61967 7.94149 9.6202 7.94361 9.62083 7.48586C9.62136 7.0921 9.60776 6.69777 9.62517 6.30477C9.63562 6.06912 9.54682 5.93455 9.35207 5.79928C8.55534 5.2459 8.38163 4.18133 8.94998 3.42539C9.36635 2.87159 9.94762 2.70952 10.5974 2.84574C11.2206 2.97641 11.6286 3.38245 11.7801 4.00174C11.9519 4.7037 11.7448 5.29851 11.1877 5.76092C11.0369 5.88606 10.9682 6.01199 10.9732 6.20585C10.9846 6.64307 10.9893 7.08126 10.9723 7.51813C10.9615 7.79886 11.0526 7.8982 11.3496 7.89877C12.1108 7.90024 12.8713 7.86671 13.6343 7.93574C15.2911 8.08563 16.6525 8.7961 17.7633 9.99377C18.9359 11.2582 19.4962 12.7633 19.4805 14.4763C19.4715 15.4575 19.5721 16.4483 19.3131 17.4125C18.6066 20.0419 16.8416 21.5695 14.2025 22.1701C13.7278 22.2781 13.2445 22.3066 12.7563 22.3039C11.2749 22.2958 9.79335 22.3062 8.31194 22.2971C8.05443 22.2955 7.84198 22.3577 7.63882 22.5107C7.07612 22.9346 6.50567 23.3483 5.91933 23.7802ZM4.95516 17.6285C5.63315 18.16 6.38784 18.4748 7.26892 18.471C9.33519 18.4621 11.4016 18.4489 13.4677 18.4654C15.2382 18.4795 17.2697 16.6507 16.9283 14.3858C16.6637 12.6302 15.1362 11.274 13.3465 11.2701C11.3133 11.2656 9.27999 11.2693 7.24673 11.2705C7.11435 11.2705 6.97845 11.262 6.85012 11.2872C5.34593 11.582 4.2908 12.4322 3.84559 13.884C3.40626 15.3166 3.79766 16.576 4.95516 17.6285Z" fill="white"/>
<path d="M20.8219 29.8052C20.7276 30.4014 20.6284 30.9707 20.5531 31.543C20.5163 31.8233 20.3773 31.9307 20.1007 31.9562C18.883 32.0686 17.6762 31.9439 16.4692 31.8149C16.2334 31.7897 16.0829 31.6637 16.0613 31.4168C16.0148 30.885 15.9627 30.3537 15.9252 29.8213C15.9062 29.5514 15.8118 29.3896 15.5181 29.3152C14.5549 29.0713 13.6118 28.7608 12.7035 28.358C12.4833 28.2604 12.3363 28.2962 12.1815 28.4671C11.8646 28.8173 11.5328 29.1543 11.2107 29.5001C10.8107 29.9297 10.5957 29.9623 10.1375 29.6113C9.30758 28.9755 8.48217 28.3339 7.66464 27.6827C7.30084 27.3929 7.28327 27.205 7.53456 26.8068C7.80371 26.3803 8.07042 25.9517 8.3563 25.5362C8.47471 25.3642 8.45367 25.2534 8.30914 25.1176C8.03165 24.8569 7.76724 24.5826 7.47004 24.2866C7.96668 23.9241 8.35332 23.4712 9.05072 23.5555C9.55171 23.6161 10.0669 23.5816 10.5745 23.5603C10.8211 23.5499 10.9868 23.6343 11.1528 23.8015C12.6796 25.3389 14.4999 26.3698 16.637 26.8047C19.5637 27.4003 22.2668 26.8283 24.7473 25.1931C24.7748 25.175 24.8008 25.1539 24.8241 25.1308C24.8386 25.1162 24.8467 25.0953 24.8699 25.0574C24.7091 24.9583 24.5314 24.9927 24.3634 24.9876C23.5579 24.9632 22.7499 25.0436 21.9466 24.9293C21.4002 24.8516 21.1254 24.5555 21.1007 24.0103C21.0934 23.8466 21.0988 23.6822 21.0988 23.5182C21.0996 18.5092 21.1004 13.5002 21.1012 8.49118C21.1012 8.37087 21.1012 8.25057 21.1016 8.13027C21.1044 7.29059 21.4021 6.97865 22.2555 6.96728C23.217 6.95446 24.1789 6.96385 25.1406 6.96386C26.9314 6.96388 28.7223 6.97246 30.513 6.9599C31.1748 6.95525 31.7018 7.13175 32.1807 7.63755C33.2833 8.80209 34.4463 9.91093 35.5953 11.0319C35.8749 11.3046 36.0025 11.6073 36 11.9941C35.9746 15.952 35.9579 19.91 35.9359 23.8679C35.9313 24.686 35.6921 24.8966 34.8673 24.9321C33.1435 25.0064 31.4193 24.9911 29.6952 24.9797C29.2686 24.9768 29.0887 25.2913 28.8423 25.5244C28.7439 25.6175 28.8473 25.7295 28.8995 25.8218C29.1802 26.3178 29.4671 26.8104 29.7451 27.3078C29.9782 27.7249 29.9439 27.9253 29.5538 28.2025C28.6834 28.821 27.8073 29.4319 26.9246 30.0331C26.535 30.2984 26.2885 30.2523 25.9707 29.9044C25.6299 29.5313 25.2883 29.1588 24.9512 28.7823C24.8109 28.6255 24.6666 28.5795 24.4541 28.6574C23.3565 29.0599 22.2419 29.4068 21.0831 29.5965C20.971 29.6148 20.8727 29.6642 20.8219 29.8052ZM22.3248 16.9281C22.303 19.093 22.3617 21.2586 22.2685 23.4227C22.2546 23.7446 22.3729 23.8558 22.6881 23.833C23.1395 23.8004 23.5925 23.7737 24.0449 23.7728C27.483 23.7659 30.9211 23.7631 34.3592 23.7687C34.647 23.7692 34.7718 23.7114 34.7726 23.3914C34.7812 19.9029 34.7282 16.4139 34.8337 12.9261C34.8433 12.6089 34.7399 12.51 34.4203 12.5161C33.4699 12.534 32.5189 12.5235 31.5682 12.5222C30.9186 12.5214 30.6643 12.2721 30.6629 11.632C30.6607 10.6258 30.6497 9.61934 30.6686 8.61346C30.6747 8.2873 30.5855 8.18165 30.2428 8.18358C27.7776 8.19748 25.3123 8.19084 22.8471 8.19093C22.3345 8.19095 22.3329 8.19137 22.3323 8.69234C22.3293 11.4157 22.3272 14.1391 22.3248 16.9281ZM32.6999 11.2912C33.1242 11.2912 33.5485 11.2912 34.0573 11.2912C33.282 10.5421 32.5772 9.86122 31.852 9.16066C31.852 9.63687 31.8371 10.1031 31.8584 10.5676C31.8689 10.7986 31.701 11.0923 31.9207 11.248C32.1083 11.381 32.3932 11.2761 32.6999 11.2912Z" fill="white"/>
<path d="M23.3276 1.94871C23.4903 1.68603 23.634 1.43957 23.7917 1.20221C23.9873 0.907701 24.2396 0.824575 24.5649 0.973529C25.4974 1.40051 26.4252 1.83835 27.3218 2.33602C27.7319 2.56363 27.7926 2.77558 27.6185 3.20966C27.4393 3.6566 27.2713 4.10854 27.0744 4.54773C26.9678 4.7853 26.9887 4.94182 27.2072 5.10647C27.5098 5.33459 27.7848 5.5986 28.0728 5.84821C27.9484 6.00514 27.8172 5.9541 27.7055 5.95446C26.4784 5.95838 25.2513 5.95331 24.0242 5.95971C23.7858 5.96095 23.57 5.91629 23.3543 5.8157C21.863 5.12031 20.2872 4.76691 18.6425 4.7854C16.7419 4.80676 14.9589 5.29689 13.3089 6.2421C13.2119 6.29766 13.1275 6.40989 12.9838 6.35496C12.9467 6.21431 13.0546 6.1273 13.107 6.02885C13.5437 5.20809 13.6609 4.35284 13.3772 3.46415C13.2977 3.21525 13.3552 3.10164 13.5973 3.03059C14.1685 2.86294 14.7336 2.67433 15.3068 2.51386C15.5272 2.45216 15.6426 2.35743 15.6658 2.11795C15.7151 1.60894 15.7915 1.10241 15.8613 0.59547C15.8998 0.316116 16.0284 0.156791 16.3504 0.127686C17.341 0.0381447 18.332 -0.0119976 19.3265 0.00246469C19.7447 0.00854559 19.8167 0.0667303 19.8894 0.478159C19.9785 0.981923 20.0667 1.48588 20.1498 1.99065C20.1787 2.16658 20.2331 2.28131 20.4446 2.31875C21.1389 2.44166 21.8293 2.58913 22.5035 2.79726C22.6951 2.85641 22.8015 2.76835 22.891 2.63509C23.0377 2.4166 23.1741 2.19137 23.3276 1.94871Z" fill="white"/>
<path d="M6.47219 15.9133C5.98744 15.542 5.80484 15.0851 5.95444 14.5127C6.08666 14.0067 6.41911 13.6887 6.93091 13.6016C7.57524 13.492 8.11455 13.7561 8.3623 14.2511C8.60805 14.7421 8.50134 15.4006 8.11588 15.772C7.6821 16.1899 7.10159 16.2453 6.47219 15.9133Z" fill="white"/>
<path d="M12.7988 15.9589C12.2466 15.6077 12.0329 15.0877 12.1887 14.5144C12.3325 13.9855 12.7778 13.6149 13.2971 13.5917C13.9951 13.5607 14.465 13.82 14.6484 14.4047C14.8029 14.8971 14.7546 15.3797 14.3513 15.7671C13.9422 16.16 13.4124 16.2286 12.7988 15.9589Z" fill="white"/>
<path d="M33.6172 16.5692C33.6172 16.7324 33.6274 16.8644 33.6151 16.9944C33.5866 17.2962 33.6339 17.5294 33.9549 17.6891C34.1864 17.8042 34.2798 18.0627 34.2794 18.3332C34.2781 19.3821 34.2846 20.431 34.2759 21.4798C34.2712 22.0561 33.774 22.5462 33.154 22.5547C31.9726 22.571 30.7907 22.5676 29.6092 22.5535C29.0886 22.5473 28.609 22.0542 28.6015 21.5166C28.5869 20.468 28.5916 19.4189 28.6021 18.3701C28.6052 18.062 28.7323 17.7899 29.01 17.6241C29.1671 17.5303 29.2004 17.4048 29.204 17.2413C29.2128 16.849 29.1908 16.4572 29.2485 16.0643C29.3939 15.0747 30.2395 14.3245 31.2515 14.3114C32.4985 14.2953 33.3263 14.8666 33.5854 15.9175C33.6362 16.1234 33.6066 16.3306 33.6172 16.5692ZM32.507 16.193C32.3013 15.594 31.9787 15.3834 31.3041 15.4075C30.8048 15.4253 30.4923 15.7169 30.3459 16.2883C30.26 16.6235 30.315 16.9623 30.3034 17.2993C30.2967 17.493 30.4229 17.53 30.5874 17.529C31.1397 17.5256 31.6921 17.5207 32.2443 17.53C32.4675 17.5337 32.5383 17.4288 32.5335 17.2316C32.5254 16.9042 32.5198 16.5767 32.507 16.193ZM31.2177 21.3683C31.7998 21.3604 31.8103 21.3597 31.7757 20.8337C31.7597 20.5905 31.8015 20.4015 31.988 20.2219C32.1167 20.0979 32.1915 19.9133 32.1527 19.711C32.0911 19.3902 31.8496 19.1215 31.5458 19.0989C31.2322 19.0755 30.9975 19.223 30.8501 19.5042C30.6878 19.8139 30.7652 20.0859 31.0082 20.3016C31.1566 20.4334 31.2035 20.5488 31.1774 20.7493C31.152 20.9446 31.0771 21.1534 31.2177 21.3683Z" fill="white"/>
<path d="M26.8308 22.6143C26.3826 22.5766 26.2826 22.4888 26.2855 22.0968C26.298 20.3473 26.3198 18.598 26.3335 16.8485C26.3356 16.5864 26.4514 16.4802 26.7158 16.473C27.5009 16.4517 27.5058 16.4526 27.5056 17.2376C27.5053 18.8015 27.5071 20.3654 27.5094 21.9293C27.5103 22.5246 27.4703 22.5685 26.8308 22.6143Z" fill="white"/>
<path d="M25.6327 13.964C25.1021 13.9642 24.6045 13.9673 24.1071 13.9636C23.7387 13.9608 23.5594 13.7788 23.5574 13.4188C23.5553 13.0428 23.7164 12.8708 24.0939 12.87C25.7965 12.8661 27.4991 12.8649 29.2017 12.8665C29.6006 12.8669 29.7012 12.9778 29.702 13.3833C29.7029 13.8267 29.5886 13.9608 29.1816 13.9621C28.0097 13.9659 26.8378 13.9638 25.6327 13.964Z" fill="white"/>
<path d="M26.2298 10.3727C27.1141 10.3722 27.9651 10.3696 28.8162 10.3721C29.2067 10.3733 29.3002 10.4792 29.3033 10.8992C29.3066 11.337 29.2006 11.4681 28.8166 11.4687C27.2803 11.4715 25.7439 11.4715 24.2076 11.4683C23.8656 11.4676 23.7203 11.3127 23.703 10.9591C23.6831 10.5513 23.8018 10.3787 24.1761 10.3702C24.8492 10.3549 25.5231 10.3702 26.2298 10.3727Z" fill="white"/>
<path d="M25.6005 18.3359C25.7792 18.4278 25.7887 18.5664 25.7885 18.714C25.7867 19.8287 25.7899 20.9434 25.785 22.0581C25.7835 22.4094 25.6879 22.4918 25.3226 22.4976C25.2122 22.4993 25.1015 22.4934 24.9913 22.4987C24.7115 22.5122 24.5674 22.3577 24.5662 22.1063C24.5607 20.9481 24.5682 19.7898 24.5766 18.6315C24.5783 18.4036 24.7095 18.3013 24.9427 18.3142C25.1519 18.3257 25.3619 18.3226 25.6005 18.3359Z" fill="white"/>
<path d="M24.1842 20.7697C24.1814 21.2165 24.188 21.6311 24.1734 22.045C24.1601 22.4248 24.0738 22.4969 23.693 22.5002C23.5719 22.5012 23.4506 22.5005 23.3294 22.4969C23.0914 22.4898 22.9591 22.3707 22.9583 22.1313C22.9559 21.4662 22.9596 20.8011 22.9564 20.1361C22.9553 19.9042 23.0796 19.8057 23.2967 19.7773C24.0229 19.6822 24.1808 19.8164 24.1843 20.541C24.1846 20.6064 24.1843 20.6719 24.1842 20.7697Z" fill="white"/>
</svg>
